<svg xmlns="http://www.w3.org/2000/svg" width="18.500" height="5.173" viewBox="0 0 18.500 5.173" fill="none">
  <path d="M 18.883 0.645 C 19.239 0.433 19.356 -0.027 19.145 -0.383 C 18.933 -0.739 18.473 -0.856 18.117 -0.645 L 18.5 0 L 18.883 0.645 Z M 10.272 4.892 L 9.889 4.248 L 9.889 4.248 L 10.272 4.892 Z M 8.228 4.892 L 8.611 4.248 L 8.611 4.248 L 8.228 4.892 Z M 0.383 -0.645 C 0.027 -0.856 -0.433 -0.739 -0.645 -0.383 C -0.856 -0.027 -0.739 0.433 -0.383 0.645 L 0 0 L 0.383 -0.645 Z M 18.5 0 L 18.117 -0.645 L 9.889 4.248 L 10.272 4.892 L 10.656 5.537 L 18.883 0.645 L 18.5 0 Z M 10.272 4.892 L 9.889 4.248 C 9.495 4.482 9.005 4.482 8.611 4.248 L 8.228 4.892 L 7.844 5.537 C 8.711 6.052 9.789 6.052 10.656 5.537 L 10.272 4.892 Z M 8.228 4.892 L 8.611 4.248 L 0.383 -0.645 L 0 0 L -0.383 0.645 L 7.844 5.537 L 8.228 4.892 Z" fill="currentColor" fill-rule="nonzero"></path>
</svg>
